<svg preserveAspectRatio="none" width="100%" height="100%" overflow="visible" style="display: block;" viewBox="0 0 7.48054 3.84" fill="none" xmlns="http://www.w3.org/2000/svg">
<g id="Group">
<path id="Vector" d="M4.26025 3.83429C3.89695 3.83429 3.57906 3.85493 3.26943 3.81777C3.05888 3.793 2.84007 3.67741 2.89787 3.40493C2.95567 3.17786 3.14557 3.15722 3.36438 3.19025C3.63686 3.23153 3.91759 3.23979 4.19833 3.25218C4.36346 3.26043 4.5286 3.2852 4.57814 3.46686C4.64007 3.68566 4.49557 3.78475 4.26025 3.83429Z" fill="var(--fill-0, black)"/>
<path id="Vector_2" d="M5.25521 1.98062C5.61025 2.27786 5.95704 2.29438 6.35337 2.03429C6.76622 1.76181 6.88594 1.38612 6.90246 0.878322C4.80004 0.970453 2.6939 0.827829 0.623097 0.453092C0.829519 0.733826 1.13502 0.601716 1.19282 0.940248C1.33732 1.72878 1.70475 1.91456 2.45612 1.64621C2.68732 1.56364 2.83594 1.56364 2.98044 1.80309C3.43457 2.56685 4.00429 2.67832 4.71851 2.1664C4.86301 2.06731 4.98273 1.93107 5.25521 1.97649V1.98062Z" fill="var(--fill-0, white)"/>
<path id="Vector_3" fill-rule="evenodd" clip-rule="evenodd" d="M6.37814 0.37878C6.22126 0.391165 6.06438 0.403551 5.90337 0.382908C5.47401 0.424193 5.06943 0.37878 4.6731 0.329239C4.45429 0.304468 4.23548 0.279697 4.01668 0.271441C2.902 0.217771 1.78319 0.122817 0.664382 0.0237341L0.585941 0.0154772C0.371262 -0.00929347 0.152455 -0.0299356 0.0492441 0.16823C-0.0746091 0.420064 0.0492442 0.688413 0.263923 0.870064C0.540561 1.10144 0.772785 1.38123 0.949244 1.69575C1.23824 2.20355 1.72126 2.39759 2.28686 2.30263C2.53457 2.26135 2.68732 2.33153 2.8442 2.48428C3.12311 2.78 3.50425 2.95828 3.91001 2.98282C4.31576 3.00737 4.71562 2.87633 5.02814 2.61639C5.18502 2.49254 5.32952 2.42649 5.49879 2.52144C6.04374 2.82695 6.49374 2.54621 6.91897 2.27373C7.54236 1.88153 7.67447 0.940248 7.17493 0.527404C6.93961 0.333367 6.66713 0.354009 6.37814 0.37878ZM6.35337 2.03428C5.95291 2.29438 5.61025 2.27786 5.25521 1.98062C5.02401 1.93933 4.90016 2.03428 4.78044 2.12511L4.71851 2.17052C4.00429 2.68245 3.43869 2.57098 2.98456 1.80722C2.83594 1.56777 2.68732 1.56777 2.45612 1.65034C1.70475 1.91869 1.33732 1.73291 1.19282 0.944376C1.15979 0.754468 1.05246 0.713184 0.924474 0.663642C0.825391 0.622358 0.713923 0.581074 0.623097 0.45722C2.75337 0.853551 4.80108 0.952633 6.89833 0.874193C6.88594 1.38612 6.77034 1.76181 6.35337 2.03428Z" fill="var(--fill-0, black)"/>
</g>
</svg>
