<svg preserveAspectRatio="none" width="100%" height="100%" overflow="visible" style="display: block;" viewBox="0 0 12.3482 21.1853" fill="none" xmlns="http://www.w3.org/2000/svg">
<path id="Vector" d="M5.97756 0C6.96211 0 7.85401 0.127414 8.64165 0.370657C9.4293 0.6139 10.1011 0.96139 10.6455 1.41313C11.1899 1.86487 11.6185 2.39768 11.9081 3.02317C12.1976 3.64865 12.3482 4.33205 12.3482 5.08494V5.3861C12.3482 5.82625 12.3019 6.24324 12.1976 6.63706C12.0934 7.03089 11.9196 7.42471 11.6764 7.83012C11.4332 8.23552 11.0857 8.66409 10.6571 9.11583C10.2285 9.57915 9.69571 10.1004 9.04706 10.6795C8.64165 11.0502 8.32891 11.3629 8.08567 11.6293C7.84243 11.8958 7.66868 12.139 7.54127 12.3707C7.41385 12.6023 7.33277 12.8224 7.29802 13.0541C7.26327 13.2857 7.24011 13.5405 7.24011 13.8417C7.24011 14.2587 7.07795 14.5946 6.7652 14.8263C6.45246 15.0579 6.07022 15.1853 5.65324 15.1853C5.18992 15.1853 4.80768 15.0695 4.47177 14.8378C4.14744 14.6062 3.9737 14.2471 3.9737 13.749C3.9737 13.251 3.99686 12.8456 4.05478 12.4633C4.11269 12.0811 4.21694 11.7104 4.36752 11.3514C4.5181 10.9923 4.74976 10.6332 5.05092 10.2857C5.35208 9.93822 5.7459 9.53282 6.24397 9.09266C6.81154 8.59459 7.26327 8.17761 7.59918 7.8417C7.93509 7.50579 8.2015 7.19305 8.38683 6.92664C8.57216 6.64865 8.68799 6.40541 8.7459 6.17374C8.80382 5.94208 8.82698 5.69884 8.82698 5.42085V5.28185C8.82698 4.99228 8.76907 4.71429 8.66482 4.45946C8.56057 4.20463 8.38683 3.97297 8.15517 3.77606C7.92351 3.57915 7.62235 3.41699 7.25169 3.30116C6.88103 3.18533 6.41772 3.12741 5.86173 3.12741C5.132 3.12741 4.48335 3.23166 3.93895 3.45174C3.39455 3.67181 2.87331 3.94981 2.37524 4.30888C2.00459 4.56371 1.64551 4.65637 1.28644 4.57529C0.927366 4.49421 0.626209 4.27413 0.371383 3.92664C0.116557 3.60232 -0.0108582 3.23166 0.000724769 2.81467C0.000724769 2.39768 0.197638 2.06178 0.568294 1.78378C1.24011 1.25097 2.02775 0.822394 2.91964 0.509653C3.81154 0.185329 4.83084 0.0347498 5.97756 0.0347498V0ZM5.61849 17.0154C6.20922 17.0154 6.69571 17.2124 7.10111 17.6178C7.50652 18.0232 7.70343 18.5097 7.70343 19.1004C7.70343 19.6911 7.50652 20.1776 7.10111 20.583C6.69571 20.9884 6.20922 21.1853 5.61849 21.1853C5.02775 21.1853 4.54127 20.9884 4.13586 20.583C3.73046 20.1776 3.53354 19.6911 3.53354 19.1004C3.53354 18.5097 3.73046 18.0232 4.13586 17.6178C4.54127 17.2124 5.02775 17.0154 5.61849 17.0154Z" fill="var(--fill-0, white)"/>
</svg>
