<svg preserveAspectRatio="none" width="100%" height="100%" overflow="visible" style="display: block;" viewBox="0 0 10.5969 9.36796" fill="none" xmlns="http://www.w3.org/2000/svg">
<g id="Group">
<path id="Vector" d="M0 5.07044C0 4.6576 2.5844 6.76723 5.23486 6.10255C6.2422 5.85072 5.9078 4.58742 5.9078 4.58742L6.84083 4.49246C6.84083 4.49246 6.70459 5.66907 7.05963 5.81356C8.56651 6.40806 10.4243 3.8154 10.5647 4.45118C10.7917 5.48742 9.75551 6.94063 9.40872 7.50622C8.90092 8.3154 7.94725 9.18237 7.29496 9.29797C3.90138 9.9131 0 6.30485 0 5.07044ZM3.33991 2.3787C2.70826 2.3787 2.3078 2.08971 2.20046 1.61494C2.08486 1.07411 2.40275 0.483746 2.91055 0.211269C3.44725 -0.0777216 4.04587 -0.0157948 4.56193 0.0791593C5.16055 0.190627 5.78807 0.1576 6.36606 0.36815C6.44706 0.400346 6.53363 0.416191 6.62078 0.414774C6.70793 0.413357 6.79394 0.394705 6.87385 0.359893C7.10434 0.267636 7.35292 0.229501 7.60046 0.248425C8.18898 0.286942 8.77951 0.282802 9.36743 0.23604C9.92064 0.198884 10.2839 0.545673 10.445 1.16907C10.5482 1.55301 10.2881 2.11861 9.89587 2.32503C9.68122 2.44675 9.43797 2.50901 9.19123 2.50538C8.94449 2.50175 8.70319 2.43237 8.4922 2.30439C8.21147 2.15164 7.95963 2.04017 7.60872 2.18466C7.47818 2.24191 7.33505 2.2644 7.19326 2.24993C7.05146 2.23546 6.91582 2.18453 6.79954 2.1021C6.62202 1.9576 6.46101 1.94109 6.2711 2.04843C6.2133 2.08145 6.11835 2.11861 6.06881 2.08971C5.46606 1.80072 4.85505 1.99888 4.23991 2.03191C3.89312 2.04843 3.70321 2.36219 3.33991 2.3787Z" fill="var(--fill-0, black)"/>
</g>
</svg>
