<svg preserveAspectRatio="none" width="100%" height="100%" overflow="visible" style="display: block;" viewBox="0 0 11.6686 1.61089" fill="none" xmlns="http://www.w3.org/2000/svg">
<g id="Group">
<path id="Vector" d="M2.94843 0.424606C3.22091 0.391578 3.44384 0.350294 3.67091 0.329652C3.86494 0.30901 4.00944 0.403964 4.09613 0.577358C4.17457 0.742496 4.03421 0.825065 3.95577 0.940661C3.34063 1.83653 2.42824 1.62598 1.61081 1.47736C1.03283 1.37002 0.355767 1.26681 0.0791617 0.540202C-0.0653337 0.168643 -0.0364346 0.0447895 0.372281 0.00350506C0.607602 -0.0171371 0.82641 0.0571747 1.04109 0.127358C1.6521 0.337909 2.30026 0.436991 2.94843 0.424606ZM8.33604 0.44112C8.56724 0.275982 8.78192 0.317267 9.01311 0.366808C9.71907 0.511303 10.4292 0.606257 11.0856 0.172771C11.2631 0.0530464 11.4654 0.0282758 11.6099 0.20167C11.742 0.362679 11.6223 0.523689 11.5315 0.680569C11.2425 1.1925 10.7512 1.35763 10.2351 1.48974C9.82228 1.59708 9.39292 1.57231 8.97595 1.54754C8.31953 1.50626 8.07595 1.09341 8.33604 0.44112Z" fill="var(--fill-0, black)"/>
</g>
</svg>
