<svg preserveAspectRatio="none" width="100%" height="100%" overflow="visible" style="display: block;" viewBox="0 0 31.1323 32.7386" fill="none" xmlns="http://www.w3.org/2000/svg">
<g id="Group">
<path id="Vector" d="M10.1944 3.34413C11.4711 2.18698 12.9562 1.2833 14.5706 0.681285C16.0155 0.128074 17.4522 -0.00403558 18.9509 9.28602e-05C20.627 0.00834974 22.0266 0.767983 23.5912 1.32119C25.961 2.14688 30.8614 6.52303 29.433 12.146C29.2431 12.8891 29.1192 13.6239 28.9045 14.3258C28.6155 15.2547 28.7724 16.1134 28.8385 17.0175C28.9954 19.0694 30.7417 21.7239 30.9688 23.7551C31.1298 25.1836 31.2247 26.5872 30.9977 27.9992C30.816 29.151 30.1059 30.9304 29.7633 32.0244C29.5362 32.7593 28.1366 32.1895 27.5215 32.7386C27.3027 32.6561 27.2532 32.5487 27.2243 32.3671C27.1169 31.6322 27.3564 30.9923 27.6536 30.3441C27.9013 29.8074 27.9633 29.2129 28.1408 28.6473C27.7116 29.4249 27.2822 30.2025 26.8527 30.9799C26.4399 31.5992 26.2747 31.657 25.61 31.3556C24.9908 31.0749 24.4128 30.7033 23.777 30.4597C23.5954 30.3937 23.4344 30.3152 23.2362 30.2946C22.6871 30.2409 22.4683 29.7868 22.2123 29.3946C22.1256 29.2583 22.2701 29.1593 22.3857 29.0643C23.0966 28.4953 23.8727 28.013 24.6977 27.6276C25.9362 26.9877 26.5472 25.9102 27.0839 24.746C27.6288 23.5776 27.8766 22.3226 28.0747 21.0634C28.2811 19.7423 28.1036 18.4171 28.0334 17.096C27.9798 16.2042 27.827 15.3166 28.1697 14.4455C28.211 14.3382 28.2027 14.1978 28.1738 14.0781C27.8621 12.8213 27.6413 11.5437 27.5133 10.2551C27.3977 8.99596 25.6967 4.03771 22.7077 6.01523C21.8201 6.60147 21.4692 7.30743 20.7839 8.58312C20.0408 9.9744 18.9674 11.0106 17.6174 11.795C16.8949 12.2161 16.1477 12.6372 15.3385 12.8189C14.3683 13.0336 13.4064 13.3226 12.4032 13.3886C11.7331 13.4598 11.1057 13.7517 10.6197 14.2184C9.60821 15.1019 9.79399 16.0639 10.6403 17.2116C11.6311 18.5533 12.4981 19.9817 12.7541 21.6125C12.9688 22.9914 13.0183 24.4281 12.5188 25.8317C12.2298 26.645 11.8211 27.3799 11.4743 28.1561C11.0201 29.1717 11.1357 30.1996 11.5651 31.2441C10.2564 32.0616 8.8816 31.8386 7.46968 31.6322C7.53986 32.0244 7.23848 32.0203 6.94124 32.0038C5.7894 31.946 4.62931 31.9501 3.5394 31.4712C3.46096 31.4382 3.34124 31.3969 3.29169 31.4299C3.06876 31.5868 2.14812 32.1483 0.690777 29.9189C0.112796 29.023 -0.0317002 28.0198 0.00545581 27.0001C0.0384833 26.0258 0.174722 25.0432 0.352245 24.0813C0.793988 21.6703 1.94169 19.5895 3.49399 17.7235C4.55087 16.4561 5.29399 15.0317 5.51692 13.4051C5.65316 12.435 5.7316 11.4648 5.98344 10.507C6.44462 8.59651 7.30266 6.80447 8.50179 5.24734C9.02197 4.58679 9.5339 3.92624 10.1944 3.34413Z" fill="var(--fill-0, black)"/>
</g>
</svg>
