<svg preserveAspectRatio="none" width="100%" height="100%" overflow="visible" style="display: block;" viewBox="0 0 26.9781 13" fill="none" xmlns="http://www.w3.org/2000/svg">
<g id="Battery">
<path id="Rectangle" opacity="0.35" d="M2.66699 0.5H22.333C23.5296 0.5 24.5 1.47037 24.5 2.66699V10.333C24.5 11.5296 23.5296 12.5 22.333 12.5H2.66699C1.47038 12.5 0.5 11.5296 0.5 10.333V2.66699C0.5 1.47038 1.47038 0.5 2.66699 0.5Z" stroke="var(--stroke-0, #1D1D1F)"/>
<path id="Combined Shape" opacity="0.4" d="M25.65 5V9C26.4548 8.66122 26.9781 7.87313 26.9781 7C26.9781 6.12687 26.4548 5.33878 25.65 5" fill="var(--fill-0, #1D1D1F)"/>
<path id="Rectangle_2" d="M2.29999 3.66659C2.29999 2.93021 2.89694 2.33325 3.63332 2.33325H21.1666C21.903 2.33325 22.4999 2.93021 22.4999 3.66659V9.32992C22.4999 10.0663 21.903 10.6633 21.1666 10.6633H3.63332C2.89694 10.6633 2.29999 10.0663 2.29999 9.32992V3.66659Z" fill="var(--fill-0, #1D1D1F)"/>
</g>
</svg>
