<svg preserveAspectRatio="none" width="100%" height="100%" overflow="visible" style="display: block;" viewBox="0 0 44.2934 50.8726" fill="none" xmlns="http://www.w3.org/2000/svg">
<g id="Group">
<path id="Vector" d="M39.8224 32.3514H39.7992C41.5367 29.3514 42.556 25.8764 42.556 22.1467C42.556 10.8764 33.417 1.73745 22.1467 1.73745C10.8765 1.73745 1.73746 10.888 1.73746 22.1583C1.73746 33.4286 10.3784 42.0347 21.2201 42.5212L19.8649 49.1351C19.8649 49.1351 30.5328 44.5714 37.7722 35.2934C38.4556 34.4826 39.0695 33.6023 39.6255 32.6873C39.695 32.5714 39.7761 32.4672 39.8456 32.3514H39.8224Z" fill="var(--fill-0, #70D2B3)"/>
<path id="Vector_2" d="M19.8533 50.8726C19.4595 50.8726 19.0656 50.7336 18.7529 50.4788C18.2548 50.0734 18.0232 49.4131 18.1506 48.7876L19.1236 44.0849C8.24712 42.6023 1.01147e-05 33.3359 1.01147e-05 22.1699C-0.0115729 9.93822 9.92665 0 22.1467 0C34.3668 0 44.2934 9.93822 44.2934 22.1467C44.2934 25.9459 43.2973 29.6988 41.4209 33.0232C41.3861 33.1042 41.3398 33.1853 41.2934 33.2664L41.0618 33.6255C40.4479 34.6332 39.7992 35.5598 39.0811 36.4054C31.6911 45.8803 20.9768 50.5251 20.5251 50.722C20.305 50.8147 20.0734 50.861 19.8417 50.861L19.8533 50.8726ZM22.1467 3.4749C11.8494 3.4749 3.47491 11.8494 3.47491 22.1467C3.47491 32.444 11.305 40.3205 21.2896 40.7722C21.7992 40.7954 22.2741 41.0386 22.5869 41.444C22.8996 41.8494 23.0155 42.3591 22.9228 42.8571L22.2857 45.9382C25.8765 43.9228 31.8765 40.0077 36.3938 34.2162C37.0309 33.4633 37.5869 32.6757 38.1313 31.7838L38.2587 31.5869C38.2587 31.5869 38.2934 31.5174 38.3166 31.4826C39.9614 28.6332 40.8301 25.4131 40.8301 22.1467C40.8301 11.8494 32.4556 3.4749 22.1583 3.4749H22.1467Z" fill="var(--fill-0, #70D2B3)"/>
</g>
</svg>
