<svg preserveAspectRatio="none" width="100%" height="100%" overflow="visible" style="display: block;" viewBox="0 0 24.1756 40.6693" fill="none" xmlns="http://www.w3.org/2000/svg">
<g id="Group">
<path id="Vector" d="M22.8407 29.8815C18.7453 42.143 7.8214 45.9246 2.04572 30.6989C1.24893 28.6058 3.32553 27.8297 4.77874 26.9049C5.7737 26.2733 6.29801 25.7283 6.23608 25.1627C5.94709 22.504 4.71269 15.0976 4.71269 15.0976L4.58883 14.8581C4.58883 14.8581 4.61773 14.7921 4.49801 14.9077C4.37416 15.0315 4.08929 16.3196 2.97049 16.3196C1.95902 16.3196 0.939294 15.8696 0.452138 12.7567C0.266358 11.6297 0.36544 8.67371 1.62049 8.13702C2.13654 7.91821 2.61131 7.83977 3.0737 8.10399C3.54021 8.36821 2.537 7.19573 7.69755 2.90215C11.0498 0.103072 16.3466 -0.305644 18.4852 0.169127C20.6237 0.643898 22.7581 1.68839 23.7035 3.90537C24.8512 6.58885 22.6342 8.62417 23.1255 14.7425C23.0347 16.9554 23.1586 21.8104 17.0732 23.437C15.9173 23.7466 16.2764 25.4352 18.0104 25.848C20.7764 26.715 22.8407 28.8329 22.8407 29.8898" fill="var(--fill-0, white)"/>
<path id="Vector_2" fill-rule="evenodd" clip-rule="evenodd" d="M22.8407 10.8288L22.8448 10.771C23.0141 9.26821 23.1833 7.81087 23.9636 6.50215C24.232 6.68381 24.1989 6.915 24.1164 7.12968C23.2948 9.24344 23.3732 11.4398 23.4476 13.6361L23.4641 14.2141C23.5508 16.9554 22.8654 19.4489 21.0407 21.5421C20.4049 22.2687 19.5627 22.7723 18.7081 23.2058C17.8246 23.66 17.6388 24.0356 17.9154 25.0058L17.9485 25.1132C18.0063 25.2742 18.0641 25.4393 17.9072 25.6003C17.7214 25.7902 17.515 25.7366 17.2962 25.6746L17.2714 25.6705C15.2245 25.0974 13.3051 24.1405 11.6154 22.8508C11.3677 22.6691 11.1696 22.4256 10.9755 22.1861L10.9631 22.1696C10.8599 22.0457 10.8393 21.8476 10.9838 21.7402C11.12 21.637 11.2232 21.7196 11.343 21.8145L11.3842 21.8517C12.2857 22.5832 13.3798 23.0377 14.5342 23.1604C15.0875 23.2182 15.6324 23.1976 16.1856 23.1769C16.4911 23.1645 16.7966 23.1522 17.1063 23.1563C17.5274 23.1563 17.8783 22.9622 18.2086 22.7765L18.3242 22.7104C19.4719 22.0705 20.5659 21.3563 21.3049 20.2044C21.9696 19.1723 22.3742 18.0494 22.6095 16.8645C22.9067 15.3742 22.882 13.8632 22.8572 12.3315C22.8448 11.8361 22.8365 11.3324 22.8365 10.8288H22.8407ZM2.0581 7.71592C2.96223 7.64573 3.46177 8.1783 3.887 8.8017C4.39098 9.56335 4.70785 10.4333 4.81177 11.3407C4.83241 11.4934 4.85305 11.6544 4.76223 11.8072C4.57645 11.832 4.55994 11.6833 4.55581 11.576C4.53516 10.7214 4.15535 9.9783 3.77553 9.25995C3.50305 8.7439 3.10672 8.24436 2.4792 8.1205C1.76911 7.97601 1.11682 8.61592 0.794797 9.44986C0.196173 11.0022 0.299384 12.5297 0.852596 14.0324C1.09205 14.6889 1.39342 15.3577 2.0003 15.8159C2.61131 16.2824 3.3503 16.1999 3.8003 15.5806L3.88287 15.4774C3.96544 15.37 4.04801 15.2668 4.08929 15.1471C4.17599 14.9077 4.31223 14.6847 4.55581 14.7178C4.83654 14.759 4.88608 15.0604 4.91498 15.2957C5.17109 17.4584 5.47391 19.6154 5.82324 21.765L6.06682 23.3668C6.17416 24.0728 6.29801 25.0884 6.21544 25.5178C6.21011 25.5479 6.20598 25.5782 6.20305 25.6086C6.18654 25.7242 6.17828 25.815 6.02966 25.8356C5.82737 25.8687 5.74067 25.7531 5.71177 25.5714C5.61682 24.8696 5.58792 24.5971 5.54663 23.5237C5.50948 22.4833 5.31544 21.4595 5.11727 20.4315L4.91085 19.3168C4.69617 18.0453 4.48562 16.7572 4.46498 15.3122L4.38241 15.4361C4.06865 15.9026 3.81682 16.2824 3.37094 16.4269C3.03997 16.5537 2.67725 16.5721 2.33517 16.4793C1.99308 16.3866 1.68932 16.1875 1.46773 15.9109C0.885985 15.2538 0.477319 14.462 0.278742 13.6072C-0.0680467 12.2035 -0.129973 10.837 0.315898 9.45399C0.530577 8.78931 1.29434 7.60858 2.0581 7.72004V7.71592ZM3.48654 12.9797C3.66819 13.1118 3.83333 13.2274 3.98195 12.7567C3.93654 11.0145 3.37507 9.89986 2.50397 9.85445C2.96636 10.4572 3.41223 11.0434 3.45351 11.8567C3.28172 11.769 3.13101 11.6451 3.01177 11.4934C2.9292 11.4026 2.84663 11.3118 2.74342 11.2457L2.61957 11.1467C2.4214 10.998 2.21911 10.8411 1.88471 10.9609C2.04159 11.2003 2.25627 11.3737 2.47507 11.5389C2.72278 11.7329 2.97049 11.9228 3.11911 12.22C2.68149 12.5379 2.49159 12.9508 2.71865 13.4544C2.91682 13.8879 3.20994 14.2471 3.78792 14.2719C3.76315 14.0118 3.59388 13.8219 3.42461 13.6361C3.21819 13.4132 3.02416 13.1985 3.11498 12.8682C3.24709 12.8063 3.37094 12.8971 3.48654 12.9797Z" fill="var(--fill-0, black)"/>
</g>
</svg>
