<svg preserveAspectRatio="none" width="100%" height="100%" overflow="visible" style="display: block;" viewBox="0 0 54.3716 27.438" fill="none" xmlns="http://www.w3.org/2000/svg">
<g id="Group">
<path id="Vector" d="M54.1651 27.4298L0.342661 27.2935C0.342661 27.2935 1.71743 18.6362 4.31422 13.7151C7.32798 7.98896 11.6133 3.37336 20.4317 0.632077C21.2037 0.392627 27.5532 3.46831 27.5532 3.46831L32.0408 0.578407C32.0408 0.578407 39.2656 2.56831 41.9986 4.10822C45.4748 6.06097 49.4009 11.8284 51.2092 16.3284C53.133 21.1091 54.1651 27.4339 54.1651 27.4339V27.4298Z" fill="var(--fill-0, white)"/>
<path id="Vector_2" fill-rule="evenodd" clip-rule="evenodd" d="M53.1867 24.2426C53.4085 25.3086 53.6466 26.3711 53.9009 27.4298C54.0949 27.4298 54.2394 27.4298 54.3716 27.3926C54.1571 26.5685 53.9958 25.7315 53.8885 24.8867C53.806 24.35 53.7234 23.8091 53.616 23.2766C53.3601 22.0215 53.0711 20.7789 52.7078 19.561C52.2949 18.1738 51.8202 16.7991 51.2505 15.4614C50.6866 14.0701 50.0216 12.722 49.2605 11.428C48.478 10.1041 47.5888 8.84626 46.6018 7.66694V7.65869C45.7555 6.68437 44.9174 5.71832 43.8564 4.94217C43.3404 4.56648 42.7872 4.25272 42.2381 3.94309C41.8665 3.73254 41.4908 3.52199 41.1275 3.2908C39.9963 2.56419 38.7413 2.17612 37.4862 1.7963C36.8917 1.61465 36.2972 1.42887 35.711 1.21006C35.2863 1.06332 34.8498 0.952835 34.4064 0.879787C33.6468 0.735292 32.8789 0.590796 32.2101 0.0788698C32.1275 0.425659 31.8922 0.479329 31.6527 0.532998C31.5248 0.561897 31.3968 0.590796 31.2894 0.665108C30.5498 1.17397 29.8011 1.66946 29.0436 2.15135C28.6238 2.42433 28.2054 2.69956 27.7885 2.97704C27.6977 3.03483 27.6193 3.09263 27.5119 3.0307C27.0867 2.783 26.6243 2.61373 26.1619 2.44447C25.9183 2.35777 25.6789 2.27107 25.4394 2.16786L24.7376 1.883C24.1803 1.66006 23.6188 1.42887 23.0862 1.16052C22.7972 1.01603 22.5 0.912815 22.1986 0.817861C21.6867 0.652723 21.1748 0.483457 20.7578 0.0953836C20.6133 -0.0449834 20.3573 -0.040855 20.2005 0.177952C19.9651 0.520613 19.5977 0.640338 19.2261 0.764191L18.5739 0.970613C17.9873 1.14003 17.4099 1.33985 16.844 1.56924C15.6965 2.06774 14.566 2.60474 13.4546 3.17933C12.1312 3.85231 10.9038 4.69927 9.80505 5.69768C8.18042 7.18874 6.76153 8.88946 5.58578 10.755C4.75398 12.0686 4.01989 13.4416 3.38945 14.8628C2.89298 15.9798 2.45207 17.1206 2.06835 18.2812C1.74964 19.1729 1.4741 20.0794 1.24266 20.9977C1.16835 21.2949 1.09817 21.5922 1.0156 21.8812C0.891743 22.3724 0.76789 22.8596 0.668807 23.3509C0.408716 24.7091 0.189908 26.0757 0 27.438C0.260092 27.438 0.478899 27.438 0.705963 27.3926C0.747248 26.6454 0.887615 25.9353 1.02385 25.2376L1.12706 24.7009C1.37468 23.2183 1.72506 21.7546 2.17569 20.3206L2.34083 19.8252C2.86927 18.2481 3.38945 16.6793 4.09128 15.1683C5.03257 13.133 6.11422 11.1844 7.46422 9.38025C8.42802 8.07513 9.53134 6.87906 10.7546 5.81327C11.8982 4.82658 13.1904 4.09171 14.5445 3.41052C15.0193 3.17107 15.5064 2.95639 15.9894 2.73759C16.6249 2.46635 17.2489 2.16885 17.8596 1.84584C18.256 1.62703 18.4954 1.63942 18.6729 2.14722C19.0513 3.18393 19.6166 4.14245 20.3408 4.9752C21.8202 6.77795 23.8685 8.02413 26.1495 8.50915C28.4615 9.00456 30.4968 8.49676 32.1771 6.84126C33.0894 5.94951 33.9605 4.98759 34.4436 3.7697C34.6294 3.29493 34.7986 2.80777 34.9679 2.31236L35.2156 1.61052L36.6193 2.05639C37.061 2.20089 37.5069 2.34538 37.9569 2.48162C39.8436 3.0596 41.5321 4.06694 43.1422 5.18162C44.9298 6.42015 46.255 8.12933 47.4853 9.8963C48.3603 11.1806 49.1399 12.5273 49.8179 13.9257C50.5046 15.2947 51.091 16.7117 51.5725 18.1656C52.0555 19.6229 52.4931 21.0968 52.8316 22.6078L53.1867 24.2426ZM25.2908 2.81603C25.6335 2.97704 25.9803 3.13804 26.3642 3.18759L26.55 3.27841C26.7672 3.40409 27.0047 3.49073 27.2518 3.53437C27.128 3.7119 27.0041 3.87704 26.8803 4.03804C26.6161 4.37245 26.3683 4.69859 26.2197 5.08667L26.1248 5.33025C26.0339 5.55731 25.9431 5.78437 25.9101 6.03208C25.8647 6.40777 25.6665 6.50272 25.2826 6.42841C24.6535 6.2735 24.0586 6.00334 23.528 5.63162C23.111 5.37153 22.7023 5.09905 22.2894 4.8307C21.7404 4.4674 21.1872 4.1041 20.6174 3.76557C19.8991 3.33208 19.5771 2.64676 19.2798 1.93667C19.1518 1.62291 19.4202 1.41648 19.6514 1.2596C20.0642 0.970613 20.5349 0.962356 21.0096 1.08621C21.8105 1.29263 22.5578 1.63116 23.3092 1.9697C23.7881 2.18437 24.2628 2.39905 24.7541 2.5807C24.9358 2.64676 25.1133 2.72933 25.2908 2.8119V2.81603ZM30.6826 6.63071C30.5505 6.83713 30.4101 7.04355 30.117 6.96098C29.8734 6.90318 29.8156 6.69263 29.7578 6.48621L29.7289 6.38713C29.4135 5.34504 28.7886 4.42353 27.9372 3.74493C27.0041 4.45089 26.6656 5.4541 26.4096 6.50272C26.4096 6.53162 26.3972 6.56052 26.3931 6.58942C26.3353 6.85364 26.2775 7.11373 25.8977 7.08483C24.9853 7.00226 24.106 6.8041 23.3381 6.23437C22.7683 5.80915 22.1862 5.40043 21.6041 4.99584C21.3491 4.81764 21.0945 4.63874 20.8404 4.45915C20.9229 4.78942 21.1046 5.08254 21.3564 5.31373C22.2529 6.14773 23.2756 6.83466 24.3867 7.34905C25.8116 8.00802 27.4086 8.19879 28.9486 7.89401C30.505 7.62153 31.7188 6.7174 32.6849 5.48713L32.8417 5.29309C33.1142 4.96694 33.3991 4.62428 33.461 4.0752C33.2876 4.24859 33.1266 4.42612 32.9656 4.59951C32.5445 5.0619 32.1564 5.48713 31.6321 5.76373C31.268 5.95361 30.9561 6.23006 30.7238 6.56878L30.6826 6.63071ZM34.1422 2.77061C34.0861 2.92006 33.9833 3.04744 33.8491 3.13392C32.7344 4.18667 31.5372 5.15685 30.278 6.03621C29.9022 4.98055 29.2387 4.05104 28.3624 3.35272L29.2541 2.76648C30.1417 2.1885 31.017 1.61878 31.8839 1.0408C32.0491 0.929329 32.1399 0.999512 32.2472 1.07795L32.2927 1.11098C32.616 1.35915 33.0121 1.49406 33.4197 1.49492C34.2784 1.45364 34.522 1.9408 34.1381 2.77474L34.1422 2.77061Z" fill="var(--fill-0, black)"/>
<path id="Vector_3" d="M8.88028 27.4298C8.92982 26.4926 9.02064 25.5513 9.11973 24.6101C9.23119 23.5325 9.34266 22.455 9.51606 21.3775C9.68119 20.3743 9.87523 19.3793 10.1023 18.3926C10.4739 16.7701 11.0147 15.1972 11.9477 13.7894C12.0716 13.5995 12.1954 13.4179 12.4431 13.5871C12.6619 13.7357 12.5422 13.8926 12.4679 14.0867C12.0757 15.0775 11.7083 16.0683 11.3408 17.0674C10.832 18.5393 10.4548 20.0535 10.2138 21.5922C9.97018 22.9876 9.87523 24.4078 9.71835 25.8156C9.66468 26.3234 9.63578 26.8312 9.58624 27.3844C9.35917 27.4298 9.1445 27.4298 8.8844 27.4298H8.88028ZM46.2922 27.4298C45.9124 25.9105 45.7844 24.35 45.3674 22.8472C45.0495 21.6871 44.7894 20.5023 44.3766 19.3793C44.0835 18.5825 43.7986 17.7692 43.4105 17.0013C42.8862 15.9692 42.4486 14.8876 41.9821 13.8224C41.9284 13.7027 41.8583 13.5623 42.0316 13.455C42.2174 13.3477 42.3413 13.4385 42.4445 13.5665C42.6014 13.7729 42.7665 13.9876 42.8821 14.2229C43.2949 15.0651 43.6913 15.9156 44.1 16.766C44.6805 18.0383 45.1528 19.3571 45.5119 20.7087C45.9164 22.0106 46.216 23.3429 46.4078 24.6926C46.5193 25.5761 46.705 26.4555 46.7711 27.3885C46.6307 27.4298 46.4821 27.4298 46.2922 27.4298ZM25.1876 5.65639C24.8491 5.73896 24.7294 5.54492 24.6716 5.3096C24.6096 5.05363 24.7046 4.82657 24.9193 4.66969C25.0555 4.57061 25.2083 4.57061 25.3693 4.64492C25.5674 4.73987 25.5592 4.9174 25.5633 5.09079C25.5757 5.35088 25.4353 5.51602 25.1917 5.65639H25.1876ZM31.211 4.35593C31.2812 4.59951 31.3349 4.82657 31.1408 4.97107C30.9674 5.09492 30.7404 5.24767 30.5298 5.05363C30.3028 4.85547 30.3729 4.58712 30.5216 4.39308C30.695 4.17015 30.9344 4.06281 31.211 4.3518V4.35593Z" fill="var(--fill-0, black)"/>
</g>
</svg>
