<svg xmlns="http://www.w3.org/2000/svg" width="18" height="18" viewBox="0 0 18 18" fill="none">
  <g clip-path="url(#clip0_2534_20941)">
    <path d="M12.5126 15.4116H5.48633C3.77668 15.4116 2.38672 14.0217 2.38672 12.312V6.73829C2.38672 5.02863 3.77668 3.63867 5.48633 3.63867H12.5091C14.2188 3.63867 15.6087 5.02863 15.6087 6.73829V12.312C15.6087 14.0217 14.2188 15.4116 12.5091 15.4116H12.5126ZM5.48633 4.68114C4.35351 4.68114 3.42919 5.60547 3.42919 6.73829V12.312C3.42919 13.4448 4.35351 14.3692 5.48633 14.3692H12.5091C13.6419 14.3692 14.5663 13.4448 14.5663 12.312V6.73829C14.5663 5.60547 13.6419 4.68114 12.5091 4.68114H5.48633Z" fill="#70D2B3"/>
    <path d="M5.48463 4.16016H12.5074C13.9286 4.16016 15.0858 5.31382 15.0858 6.73853V7.74278H2.90625V6.73853C2.90625 5.3173 4.05992 4.16016 5.48463 4.16016Z" fill="#70D2B3"/>
    <path d="M15.0875 8.25986H2.90795C2.61954 8.25986 2.38672 8.02704 2.38672 7.73863V6.73438C2.38672 5.02473 3.77668 3.63477 5.48633 3.63477H12.5091C14.2188 3.63477 15.6087 5.02473 15.6087 6.73438V7.73863C15.6087 8.02704 15.3759 8.25986 15.0875 8.25986ZM3.42919 7.21739H14.5663V6.73438C14.5663 5.60156 13.6419 4.67724 12.5091 4.67724H5.48633C4.35351 4.67724 3.42919 5.60156 3.42919 6.73438V7.21739Z" fill="#70D2B3"/>
    <path d="M10.2628 11.4292H7.73999C7.45157 11.4292 7.21875 11.1964 7.21875 10.908C7.21875 10.6195 7.45157 10.3867 7.73999 10.3867H10.2628C10.5512 10.3867 10.784 10.6195 10.784 10.908C10.784 11.1964 10.5512 11.4292 10.2628 11.4292Z" fill="#70D2B3"/>
    <path d="M5.60717 4.67978C5.31876 4.67978 5.08594 4.44696 5.08594 4.15855V3.10913C5.08594 2.82071 5.31876 2.58789 5.60717 2.58789C5.89559 2.58789 6.12841 2.82071 6.12841 3.10913V4.15855C6.12841 4.44696 5.89559 4.67978 5.60717 4.67978Z" fill="#70D2B3"/>
    <path d="M12.3923 4.67978C12.1039 4.67978 11.8711 4.44696 11.8711 4.15855V3.10913C11.8711 2.82071 12.1039 2.58789 12.3923 2.58789C12.6807 2.58789 12.9136 2.82071 12.9136 3.10913V4.15855C12.9136 4.44696 12.6807 4.67978 12.3923 4.67978Z" fill="#70D2B3"/>
  </g>
  <defs>
    <clipPath id="clip0_2534_20941">
      <rect width="18" height="18" fill="white"/>
    </clipPath>
  </defs>
</svg>
