<svg width="20" height="20" viewBox="0 0 20 20" fill="none" xmlns="http://www.w3.org/2000/svg">
<g clip-path="url(#clip0_2409_15545)">
<path d="M10.0002 17.803C6.33226 17.803 3.35156 14.8185 3.35156 11.1544C3.35156 7.49029 6.33612 4.50574 10.0002 4.50574C13.6643 4.50574 16.6489 7.49029 16.6489 11.1544C16.6489 14.8185 13.6643 17.803 10.0002 17.803ZM10.0002 5.66018C6.97318 5.66018 4.50986 8.1235 4.50986 11.1505C4.50986 14.1776 6.97318 16.6409 10.0002 16.6409C13.0272 16.6409 15.4906 14.1776 15.4906 11.1505C15.4906 8.1235 13.0272 5.66018 10.0002 5.66018Z" fill="#A3A4AF"/>
<path d="M12.2338 3.86106H7.76274C7.44228 3.86106 7.18359 3.60237 7.18359 3.28191C7.18359 2.96145 7.44228 2.70276 7.76274 2.70276H12.2338C12.5543 2.70276 12.8129 2.96145 12.8129 3.28191C12.8129 3.60237 12.5543 3.86106 12.2338 3.86106Z" fill="#A3A4AF"/>
<path d="M12.7732 11.7336H10.001C9.68056 11.7336 9.42188 11.4749 9.42188 11.1544V7.59844C9.42188 7.27797 9.68056 7.01929 10.001 7.01929C10.3215 7.01929 10.5802 7.27797 10.5802 7.59844V10.5753H12.7732C13.0937 10.5753 13.3524 10.834 13.3524 11.1544C13.3524 11.4749 13.0937 11.7336 12.7732 11.7336Z" fill="#A3A4AF"/>
</g>
<defs>
<clipPath id="clip0_2409_15545">
<rect width="20" height="20" fill="white"/>
</clipPath>
</defs>
</svg>
