<svg width="24" height="24" viewBox="0 0 24 24" fill="none" xmlns="http://www.w3.org/2000/svg">
<path d="M6.15109 18.1533C5.69898 17.7011 5.69898 16.9673 6.15109 16.5152L16.6185 6.0478C17.0706 5.59569 17.8044 5.59569 18.2565 6.0478C18.7087 6.49991 18.7087 7.23378 18.2565 7.68589L7.78918 18.1533C7.33707 18.6054 6.6032 18.6054 6.15109 18.1533Z" fill="black"/>
<path d="M16.6171 18.15L6.14971 7.68259C5.6976 7.23048 5.6976 6.49662 6.14971 6.04451C6.60182 5.59239 7.33568 5.59239 7.78779 6.04451L18.2552 16.5119C18.7073 16.964 18.7073 17.6978 18.2552 18.15C17.803 18.6021 17.0692 18.6021 16.6171 18.15Z" fill="black"/>
</svg>
