<svg width="24" height="24" viewBox="0 0 24 24" fill="none" xmlns="http://www.w3.org/2000/svg">
<g clip-path="url(#clip0_2409_15543)">
<path d="M17.723 18.7135H6.2744C4.55548 18.7135 3.15625 17.3143 3.15625 15.5954V8.40928C3.15625 6.69037 4.55548 5.29114 6.2744 5.29114H17.723C19.442 5.29114 20.8412 6.69037 20.8412 8.40928V15.5954C20.8412 17.3143 19.442 18.7135 17.723 18.7135ZM6.2744 6.67647C5.31996 6.67647 4.54621 7.45021 4.54621 8.40465V15.5908C4.54621 16.5452 5.31996 17.3189 6.2744 17.3189H17.723C18.6775 17.3189 19.4512 16.5452 19.4512 15.5908V8.40465C19.4512 7.45021 18.6775 6.67647 17.723 6.67647H6.2744Z" fill="#70D2B3"/>
<path d="M12.001 14.1313C11.8991 14.1313 11.7972 14.1082 11.7045 14.0618L3.55469 10.1885L4.15237 8.93286L12.001 12.6626L19.8497 8.93286L20.4474 10.1885L12.2975 14.0618C12.2049 14.1082 12.1029 14.1313 12.001 14.1313Z" fill="#70D2B3"/>
</g>
<defs>
<clipPath id="clip0_2409_15543">
<rect width="24" height="24" fill="white"/>
</clipPath>
</defs>
</svg>
