<svg width="28" height="28" viewBox="0 0 28 28" fill="none" xmlns="http://www.w3.org/2000/svg">
<g clip-path="url(#clip0_2409_15759)">
<path d="M15.6034 8.57836L14.8574 6.69728C14.7764 6.49728 14.5872 6.36755 14.3709 6.36755H5.9277C5.20878 6.36755 4.625 6.95134 4.625 7.67026V20.3513C4.625 21.0703 5.20878 21.654 5.9277 21.654H22.0791C22.798 21.654 23.3818 21.0703 23.3818 20.3513V10.2108C23.3818 9.49188 22.798 8.90809 22.0791 8.90809H16.0899C15.8736 8.90809 15.6845 8.77836 15.6034 8.57836Z" fill="#70D2B3"/>
<path d="M22.0774 22.4649H5.92601C4.75845 22.4649 3.8125 21.5189 3.8125 20.3514V7.67028C3.8125 6.50271 4.75845 5.55676 5.92601 5.55676H14.3693C14.9206 5.55676 15.4071 5.88649 15.6071 6.40001L16.2774 8.0973H22.072C23.2395 8.0973 24.1855 9.04325 24.1855 10.2108V20.3514C24.1855 21.5189 23.2395 22.4649 22.072 22.4649H22.0774ZM5.92601 7.17838C5.65574 7.17838 5.43412 7.40001 5.43412 7.67028V20.3514C5.43412 20.6216 5.65574 20.8432 5.92601 20.8432H22.0774C22.3476 20.8432 22.5693 20.6216 22.5693 20.3514V10.2108C22.5693 9.94055 22.3476 9.71892 22.0774 9.71892H16.0882C15.5368 9.71892 15.0503 9.3892 14.8503 8.87568L14.1801 7.17298H5.93142L5.92601 7.17838Z" fill="#70D2B3"/>
</g>
<defs>
<clipPath id="clip0_2409_15759">
<rect width="28" height="28" fill="white"/>
</clipPath>
</defs>
</svg>
