<svg width="28" height="28" viewBox="0 0 28 28" fill="none" xmlns="http://www.w3.org/2000/svg">
<g clip-path="url(#clip0_2409_15761)">
<path d="M16.896 3.05945H9.84736C6.26898 3.05945 3.35547 5.97296 3.35547 9.55134V16.6C3.35547 20.1784 6.26898 23.0919 9.84736 23.0919H16.896C20.4744 23.0919 23.3879 20.1784 23.3879 16.6V9.55134C23.3879 5.97296 20.4744 3.05945 16.896 3.05945ZM17.8095 6.88648C18.5933 6.88648 19.2257 7.51891 19.2257 8.30269C19.2257 9.08647 18.5933 9.71891 17.8095 9.71891C17.0257 9.71891 16.3933 9.08647 16.3933 8.30269C16.3933 7.51891 17.0257 6.88648 17.8095 6.88648ZM20.5501 16.1297C20.3825 16.3405 20.1338 16.454 19.8852 16.454C19.7014 16.454 19.5176 16.3946 19.3663 16.2757L17.4798 14.7946C17.069 14.4703 16.5068 14.427 16.0528 14.6811C14.8582 15.3405 13.3771 15.1676 12.3609 14.254L11.4636 13.4432C10.9555 12.9838 10.1771 13 9.6906 13.4757L7.45277 15.6432C7.11763 15.9676 6.5825 15.9622 6.25817 15.627C5.93385 15.2919 5.93925 14.7567 6.27439 14.4324L8.51223 12.2649C9.63655 11.173 11.4311 11.1405 12.5987 12.1946L13.496 13.0054C13.9717 13.4378 14.669 13.5189 15.2365 13.2054C16.2852 12.6216 17.5771 12.7297 18.523 13.4703L20.4095 14.9513C20.7771 15.2378 20.842 15.773 20.5555 16.1405L20.5501 16.1297Z" fill="#70D2B3"/>
<path d="M16.7179 25.7621H10.6909C10.226 25.7621 9.84766 25.3838 9.84766 24.9189C9.84766 24.454 9.84766 24.0757 9.84766 24.0757H16.7179C20.772 24.0757 24.0747 20.7784 24.0747 16.7189V10.5135C24.5936 10.5135 24.4531 10.5027 24.9179 10.5027C25.3828 10.5027 25.7612 10.8811 25.7612 11.3459V16.7189C25.7612 21.7081 21.7017 25.7676 16.7125 25.7676L16.7179 25.7621Z" fill="#70D2B3"/>
</g>
<defs>
<clipPath id="clip0_2409_15761">
<rect width="28" height="28" fill="white"/>
</clipPath>
</defs>
</svg>
