<svg width="28" height="28" viewBox="0 0 28 28" fill="none" xmlns="http://www.w3.org/2000/svg">
<g clip-path="url(#clip0_2409_15760)">
<path d="M19.0976 4.15125H8.903C6.46697 4.15125 4.49219 6.12603 4.49219 8.56206V19.6702C4.49219 22.1062 6.46697 24.081 8.903 24.081H19.0976C21.5336 24.081 23.5084 22.1062 23.5084 19.6702V8.56206C23.5084 6.12603 21.5336 4.15125 19.0976 4.15125Z" fill="#70D2B3"/>
<path d="M19.0974 24.8918H8.8974C6.01632 24.8918 3.67578 22.5513 3.67578 19.6702V8.5567C3.67578 5.67562 6.01632 3.33508 8.8974 3.33508H19.0974C21.9785 3.33508 24.319 5.67562 24.319 8.5567V19.6648C24.319 22.5459 21.9785 24.8864 19.0974 24.8864V24.8918ZM8.8974 4.96211C6.91362 4.96211 5.2974 6.57833 5.2974 8.56211V19.6702C5.2974 21.654 6.91362 23.2702 8.8974 23.2702H19.0974C21.0812 23.2702 22.6974 21.654 22.6974 19.6702V8.5567C22.6974 6.57292 21.0812 4.9567 19.0974 4.9567H8.8974V4.96211Z" fill="#70D2B3"/>
<circle cx="11" cy="10.4" r="1.2" fill="#70D2B3"/>
<circle cx="11" cy="14.5" r="1.2" fill="#70D2B3"/>
<circle cx="11" cy="18.6" r="1.2" fill="#70D2B3"/>
<path d="M18.8476 10.9189H9.51784C9.06919 10.9189 8.70703 10.5567 8.70703 10.1081C8.70703 9.6594 9.06919 9.29724 9.51784 9.29724H18.8476C19.2962 9.29724 19.6584 9.6594 19.6584 10.1081C19.6584 10.5567 19.2962 10.9189 18.8476 10.9189Z" fill="white"/>
<path d="M18.8476 15.0595H9.51784C9.06919 15.0595 8.70703 14.6973 8.70703 14.2487C8.70703 13.8 9.06919 13.4379 9.51784 13.4379H18.8476C19.2962 13.4379 19.6584 13.8 19.6584 14.2487C19.6584 14.6973 19.2962 15.0595 18.8476 15.0595Z" fill="white"/>
<path d="M15.28 19.2054H9.51784C9.06919 19.2054 8.70703 18.8432 8.70703 18.3946C8.70703 17.9459 9.06919 17.5837 9.51784 17.5837H15.28C15.7287 17.5837 16.0908 17.9459 16.0908 18.3946C16.0908 18.8432 15.7287 19.2054 15.28 19.2054Z" fill="white"/>
</g>
<defs>
<clipPath id="clip0_2409_15760">
<rect width="28" height="28" fill="white"/>
</clipPath>
</defs>
</svg>
