<svg width="24" height="24" viewBox="0 0 24 24" fill="none" xmlns="http://www.w3.org/2000/svg">
<g clip-path="url(#clip0_2409_15544)">
<path d="M18.1817 21.8919H5.82031C4.79174 21.8919 3.95312 21.0533 3.95312 20.0247V11.3977C3.95312 10.3691 4.79174 9.53052 5.82031 9.53052H18.1817C19.2103 9.53052 20.0489 10.3691 20.0489 11.3977V20.0247C20.0489 21.0533 19.2103 21.8919 18.1817 21.8919ZM5.82031 10.9205C5.55621 10.9205 5.34309 11.1336 5.34309 11.3977V20.0247C5.34309 20.2888 5.55621 20.5019 5.82031 20.5019H18.1817C18.4458 20.5019 18.6589 20.2888 18.6589 20.0247V11.3977C18.6589 11.1336 18.4458 10.9205 18.1817 10.9205H5.82031Z" fill="#70D2B3"/>
<path d="M16.5027 10.9205H7.49576C7.11121 10.9205 6.80078 10.6101 6.80078 10.2255V7.30661C6.80078 4.43866 9.13128 2.10815 11.9992 2.10815C14.8672 2.10815 17.1977 4.43866 17.1977 7.30661V10.2255C17.1977 10.6101 16.8873 10.9205 16.5027 10.9205ZM8.19074 9.53055H15.8077V7.30661C15.8077 5.20777 14.0981 3.49812 11.9992 3.49812C9.90039 3.49812 8.19074 5.20777 8.19074 7.30661V9.53055Z" fill="#70D2B3"/>
<path d="M11.9997 17.7498C11.6151 17.7498 11.3047 17.4394 11.3047 17.0549V15.1043C11.3047 14.7197 11.6151 14.4093 11.9997 14.4093C12.3842 14.4093 12.6946 14.7197 12.6946 15.1043V17.0549C12.6946 17.4394 12.3842 17.7498 11.9997 17.7498Z" fill="#70D2B3"/>
</g>
<defs>
<clipPath id="clip0_2409_15544">
<rect width="24" height="24" fill="white"/>
</clipPath>
</defs>
</svg>
