<svg width="28" height="28" viewBox="0 0 28 28" fill="none" xmlns="http://www.w3.org/2000/svg">
<g clip-path="url(#clip0_2409_15556)">
<path d="M17.2306 8.4865H6.98733C6.39274 8.4865 5.90625 8.00002 5.90625 7.40542C5.90625 6.81083 6.39274 6.32434 6.98733 6.32434H17.2306C17.8252 6.32434 18.3117 6.81083 18.3117 7.40542C18.3117 8.00002 17.8252 8.4865 17.2306 8.4865Z" fill="black"/>
<path d="M21.009 15.0811H6.98733C6.39274 15.0811 5.90625 14.5946 5.90625 14C5.90625 13.4054 6.39274 12.9189 6.98733 12.9189H21.0144C21.609 12.9189 22.0954 13.4054 22.0954 14C22.0954 14.5946 21.609 15.0811 21.0144 15.0811H21.009Z" fill="black"/>
<path d="M13.7225 21.6757H6.98733C6.39274 21.6757 5.90625 21.1892 5.90625 20.5946C5.90625 20 6.39274 19.5135 6.98733 19.5135H13.7225C14.3171 19.5135 14.8035 20 14.8035 20.5946C14.8035 21.1892 14.3171 21.6757 13.7225 21.6757Z" fill="black"/>
</g>
<defs>
<clipPath id="clip0_2409_15556">
<rect width="28" height="28" fill="white"/>
</clipPath>
</defs>
</svg>
