<svg xmlns="http://www.w3.org/2000/svg" width="16" height="16" viewBox="0 0 16 16" fill="none">
  <g clip-path="url(#clip_minor_contract_direct_16)">
    <path d="M13.4291 6.32617H2.57812V13.0289H13.4291V6.32617Z" fill="#70D2B3"/>
    <path d="M13.4245 13.4887H2.5766C2.32023 13.4887 2.11328 13.2818 2.11328 13.0254V6.3227C2.11328 6.06632 2.32023 5.85938 2.5766 5.85938H13.4245C13.6808 5.85938 13.8878 6.06632 13.8878 6.3227V13.0254C13.8878 13.2818 13.6808 13.4887 13.4245 13.4887ZM3.03992 12.5621H12.9612V6.78602H3.03992V12.5621Z" fill="#70D2B3"/>
    <path d="M9.76871 8.52892H6.22895C5.97257 8.52892 5.76562 8.32197 5.76562 8.0656V6.3266C5.76562 6.07023 5.97257 5.86328 6.22895 5.86328H9.76871C10.0251 5.86328 10.232 6.07023 10.232 6.3266V8.0656C10.232 8.32197 10.0251 8.52892 9.76871 8.52892ZM6.69227 7.60228H9.30539V6.78992H6.69227V7.60228Z" fill="white"/>
    <path d="M14.1932 6.78971H1.80707C1.5507 6.78971 1.34375 6.58276 1.34375 6.32639V2.97504C1.34375 2.71867 1.5507 2.51172 1.80707 2.51172H14.1901C14.4465 2.51172 14.6534 2.71867 14.6534 2.97504V6.32639C14.6534 6.58276 14.4465 6.78971 14.1901 6.78971H14.1932ZM2.27039 5.86307H13.7268V3.43836H2.27039V5.86307Z" fill="#70D2B3"/>
  </g>
  <defs>
    <clipPath id="clip_minor_contract_direct_16">
      <rect width="16" height="16" fill="white"/>
    </clipPath>
  </defs>
</svg>
