<svg width="24" height="24" viewBox="0 0 24 24" fill="none" xmlns="http://www.w3.org/2000/svg">
<g clip-path="url(#clip0_2409_15512)">
<path d="M17.647 13.4594C18.453 13.4594 19.1064 12.806 19.1064 12C19.1064 11.1939 18.453 10.5405 17.647 10.5405C16.8409 10.5405 16.1875 11.1939 16.1875 12C16.1875 12.806 16.8409 13.4594 17.647 13.4594Z" fill="black"/>
<path d="M11.9712 13.4594C12.7772 13.4594 13.4306 12.806 13.4306 12C13.4306 11.1939 12.7772 10.5405 11.9712 10.5405C11.1651 10.5405 10.5117 11.1939 10.5117 12C10.5117 12.806 11.1651 13.4594 11.9712 13.4594Z" fill="black"/>
<path d="M6.2993 13.4594C7.10534 13.4594 7.75876 12.806 7.75876 12C7.75876 11.1939 7.10534 10.5405 6.2993 10.5405C5.49327 10.5405 4.83984 11.1939 4.83984 12C4.83984 12.806 5.49327 13.4594 6.2993 13.4594Z" fill="black"/>
</g>
<defs>
<clipPath id="clip0_2409_15512">
<rect width="24" height="24" fill="white"/>
</clipPath>
</defs>
</svg>
