<svg xmlns="http://www.w3.org/2000/svg" width="16" height="16" viewBox="0 0 16 16" fill="none">
  <g clip-path="url(#payroll_add_pencil_clip)">
    <path d="M2.15708 14.3566C2.02426 14.3566 1.89144 14.3041 1.79569 14.2052C1.66596 14.0755 1.61345 13.884 1.66287 13.7049L2.63276 10.2083C2.65438 10.1311 2.69453 10.0601 2.75013 10.0045L10.7038 2.05698C11.0497 1.71104 11.51 1.51953 11.998 1.51953C12.486 1.51953 12.9463 1.71104 13.2922 2.05698L13.944 2.70872C14.6575 3.42223 14.6575 4.58362 13.944 5.29714L5.99337 13.2446C5.93777 13.3002 5.86673 13.3435 5.78951 13.362L2.29299 14.3319C2.24665 14.3442 2.20341 14.3504 2.15708 14.3504V14.3566ZM3.49453 10.5759L2.75322 13.2477L5.42503 12.5064L13.2891 4.64231C13.6413 4.29019 13.6413 3.71567 13.2891 3.36355L12.6374 2.71181C12.2976 2.37204 11.7015 2.36895 11.3586 2.71181L3.49453 10.5759Z" fill="#70D2B3"/>
    <path d="M10.667 2.74516L10.0117 3.40039L12.5977 5.98638L13.2529 5.33115L10.667 2.74516Z" fill="#70D2B3"/>
    <path d="M3.44039 9.97563L2.78516 10.6309L5.37115 13.2168L6.02638 12.5616L3.44039 9.97563Z" fill="#70D2B3"/>
    <path d="M10 3L3 10L6 13L13 5.5L10 3Z" fill="#70D2B3"/>
  </g>
  <defs>
    <clipPath id="payroll_add_pencil_clip">
      <rect width="16" height="16" fill="white"/>
    </clipPath>
  </defs>
</svg>
