<svg xmlns="http://www.w3.org/2000/svg" width="24" height="24" viewBox="0 0 24 24" fill="none">
  <g clip-path="url(#payroll_doc_clip)">
    <path d="M16.3705 3.55859H7.63226C5.54424 3.55859 3.85156 5.25127 3.85156 7.33929V16.8605C3.85156 18.9485 5.54424 20.6412 7.63226 20.6412H16.3705C18.4585 20.6412 20.1512 18.9485 20.1512 16.8605V7.33929C20.1512 5.25127 18.4585 3.55859 16.3705 3.55859Z" fill="#E7E8EF"/>
    <path d="M16.3709 21.3366H7.62802C5.15852 21.3366 3.15234 19.3304 3.15234 16.8609V7.33505C3.15234 4.86555 5.15852 2.85938 7.62802 2.85938H16.3709C18.8404 2.85938 20.8466 4.86555 20.8466 7.33505V16.8563C20.8466 19.3258 18.8404 21.332 16.3709 21.332V21.3366ZM7.62802 4.25397C5.92763 4.25397 4.54231 5.6393 4.54231 7.33968V16.8609C4.54231 18.5613 5.92763 19.9466 7.62802 19.9466H16.3709C18.0713 19.9466 19.4566 18.5613 19.4566 16.8609V7.33505C19.4566 5.63466 18.0713 4.24934 16.3709 4.24934H7.62802V4.25397Z" fill="#E7E8EF"/>
    <path d="M16.1567 9.35871H8.15982C7.77527 9.35871 7.46484 9.04829 7.46484 8.66373C7.46484 8.27917 7.77527 7.96875 8.15982 7.96875H16.1567C16.5413 7.96875 16.8517 8.27917 16.8517 8.66373C16.8517 9.04829 16.5413 9.35871 16.1567 9.35871Z" fill="white"/>
    <path d="M16.1567 12.9075H8.15982C7.77527 12.9075 7.46484 12.5971 7.46484 12.2126C7.46484 11.828 7.77527 11.5176 8.15982 11.5176H16.1567C16.5413 11.5176 16.8517 11.828 16.8517 12.2126C16.8517 12.5971 16.5413 12.9075 16.1567 12.9075Z" fill="white"/>
    <path d="M13.0988 16.4622H8.15982C7.77527 16.4622 7.46484 16.1518 7.46484 15.7672C7.46484 15.3827 7.77527 15.0723 8.15982 15.0723H13.0988C13.4834 15.0723 13.7938 15.3827 13.7938 15.7672C13.7938 16.1518 13.4834 16.4622 13.0988 16.4622Z" fill="white"/>
  </g>
  <defs>
    <clipPath id="payroll_doc_clip">
      <rect width="24" height="24" fill="white"/>
    </clipPath>
  </defs>
</svg>
