<svg xmlns="http://www.w3.org/2000/svg" width="16" height="16" viewBox="0 0 16 16" fill="none">
  <g clip-path="url(#payroll_add_folder_clip)">
    <path d="M8.91398 4.90199L8.48773 3.82709C8.4414 3.7128 8.33329 3.63867 8.20974 3.63867H3.38503C2.97422 3.63867 2.64062 3.97226 2.64062 4.38307V11.6294C2.64062 12.0402 2.97422 12.3738 3.38503 12.3738H12.6144C13.0252 12.3738 13.3588 12.0402 13.3588 11.6294V5.83481C13.3588 5.424 13.0252 5.09041 12.6144 5.09041H9.19198C9.06842 5.09041 8.96032 5.01628 8.91398 4.90199Z" fill="#70D2B3"/>
    <path d="M12.6128 12.8376H3.3835C2.71632 12.8376 2.17578 12.297 2.17578 11.6298V4.3835C2.17578 3.71632 2.71632 3.17578 3.3835 3.17578H8.20821C8.52327 3.17578 8.80126 3.3642 8.91555 3.65763L9.29856 4.62752H12.6098C13.2769 4.62752 13.8175 5.16806 13.8175 5.83524V11.6298C13.8175 12.297 13.2769 12.8376 12.6098 12.8376H12.6128ZM3.3835 4.10242C3.22906 4.10242 3.10242 4.22906 3.10242 4.3835V11.6298C3.10242 11.7843 3.22906 11.9109 3.3835 11.9109H12.6128C12.7673 11.9109 12.8939 11.7843 12.8939 11.6298V5.83524C12.8939 5.6808 12.7673 5.55416 12.6128 5.55416H9.19045C8.87539 5.55416 8.5974 5.36574 8.48312 5.07231L8.10011 4.09933H3.38659L3.3835 4.10242Z" fill="#70D2B3"/>
  </g>
  <defs>
    <clipPath id="payroll_add_folder_clip">
      <rect width="16" height="16" fill="white"/>
    </clipPath>
  </defs>
</svg>
