<svg width="24" height="24" viewBox="0 0 24 24" fill="none" xmlns="http://www.w3.org/2000/svg">
<g clip-path="url(#clip0_2409_15752)">
<path d="M3.23367 21.5351C3.03444 21.5351 2.83521 21.4564 2.69158 21.3081C2.49699 21.1135 2.41822 20.8263 2.49235 20.5575L3.94718 15.3127C3.97961 15.1969 4.03984 15.0904 4.12324 15.007L16.0537 3.08572C16.5727 2.5668 17.263 2.27954 17.9951 2.27954C18.7271 2.27954 19.4174 2.5668 19.9364 3.08572L20.914 4.06332C21.9842 5.1336 21.9842 6.87568 20.914 7.94595L8.98811 19.8672C8.90471 19.9506 8.79814 20.0154 8.68231 20.0432L3.43753 21.4981C3.36803 21.5166 3.30316 21.5259 3.23367 21.5259V21.5351ZM5.23984 15.8641L4.12787 19.8718L8.1356 18.7598L19.9317 6.96371C20.4599 6.43553 20.4599 5.57375 19.9317 5.04556L18.9541 4.06796C18.4445 3.55831 17.5503 3.55367 17.036 4.06796L5.23984 15.8641Z" fill="#70D2B3"/>
<path d="M16.0024 4.11664L15.0195 5.09949L18.8985 8.97847L19.8814 7.99562L16.0024 4.11664Z" fill="#70D2B3"/>
<path d="M5.15863 14.9628L4.17578 15.9457L8.05477 19.8247L9.03762 18.8418L5.15863 14.9628Z" fill="#70D2B3"/>
</g>
<defs>
<clipPath id="clip0_2409_15752">
<rect width="24" height="24" fill="white"/>
</clipPath>
</defs>
</svg>
