<svg xmlns="http://www.w3.org/2000/svg" width="12" height="12" viewBox="0 0 12 12" fill="none">
  <g clip-path="url(#clip0_2469_10332)">
    <path d="M1.61879 10.7674C1.51917 10.7674 1.41956 10.7281 1.34774 10.6539C1.25045 10.5566 1.21106 10.413 1.24813 10.2786L1.97554 7.65625C1.99176 7.59834 2.02187 7.54505 2.06357 7.50335L8.02883 1.54274C8.28828 1.28328 8.63346 1.13965 8.99948 1.13965C9.3655 1.13965 9.71068 1.28328 9.97014 1.54274L10.4589 2.03154C10.9941 2.56668 10.9941 3.43772 10.4589 3.97285L4.49601 9.93347C4.45431 9.97517 4.40103 10.0076 4.34311 10.0215L1.72072 10.7489C1.68597 10.7582 1.65354 10.7628 1.61879 10.7628V10.7674ZM2.62188 7.93193L2.06589 9.93579L4.06975 9.3798L9.96782 3.48173C10.2319 3.21764 10.2319 2.78675 9.96782 2.52266L9.47902 2.03386C9.22419 1.77903 8.77709 1.77671 8.51994 2.03386L2.62188 7.93193Z" fill="#666874"/>
    <path d="M7.99924 2.05838L7.50781 2.5498L9.44731 4.4893L9.93873 3.99787L7.99924 2.05838Z" fill="#666874"/>
    <path d="M2.57736 7.48123L2.08594 7.97266L4.02543 9.91215L4.51686 9.42072L2.57736 7.48123Z" fill="#666874"/>
  </g>
  <defs>
    <clipPath id="clip0_2469_10332">
      <rect width="12" height="12" fill="white"/>
    </clipPath>
  </defs>
</svg>
