<svg xmlns="http://www.w3.org/2000/svg" width="20" height="20" viewBox="0 0 20 20" fill="none">
  <g clip-path="url(#clip0_2437_23863)">
    <path d="M10.0004 16.8645C9.46759 16.8645 9.03516 16.4321 9.03516 15.8992V4.10002C9.03516 3.5672 9.46759 3.13477 10.0004 3.13477C10.5332 3.13477 10.9657 3.5672 10.9657 4.10002V15.8992C10.9657 16.4321 10.5332 16.8645 10.0004 16.8645Z" fill="#70D2B3"/>
    <path d="M15.9012 10.9657H4.10197C3.56915 10.9657 3.13672 10.5332 3.13672 10.0004C3.13672 9.46759 3.56915 9.03516 4.10197 9.03516H15.9012C16.434 9.03516 16.8664 9.46759 16.8664 10.0004C16.8664 10.5332 16.434 10.9657 15.9012 10.9657Z" fill="#70D2B3"/>
  </g>
  <defs>
    <clipPath id="clip0_2437_23863">
      <rect width="20" height="20" fill="white"/>
    </clipPath>
  </defs>
</svg>
