<svg xmlns="http://www.w3.org/2000/svg" width="16" height="16" viewBox="0 0 16 16" fill="none">
  <g clip-path="url(#clip0_2437_27091)">
    <path d="M8.0011 14.1057C11.3737 14.1057 14.1077 11.3717 14.1077 7.99914C14.1077 4.62658 11.3737 1.89258 8.0011 1.89258C4.62853 1.89258 1.89453 4.62658 1.89453 7.99914C1.89453 11.3717 4.62853 14.1057 8.0011 14.1057Z" fill="#70D2B3"/>
    <path d="M3.35637 3.35406C5.91699 0.793439 10.0869 0.793439 12.6506 3.35406C15.2143 5.91467 15.2112 10.0846 12.6506 12.6483C10.09 15.2089 5.92008 15.2089 3.35637 12.6483C0.792667 10.0876 0.792667 5.91776 3.35637 3.35406ZM11.9927 11.9904C14.1919 9.79112 14.195 6.20811 11.9927 4.00888C9.79035 1.80966 6.21043 1.80966 4.0112 4.00888C1.81197 6.20811 1.81197 9.79112 4.0112 11.9904C6.21043 14.1896 9.79344 14.1896 11.9927 11.9904Z" fill="#70D2B3"/>
    <path d="M7.98885 4.36426C8.32862 4.36426 8.60661 4.64225 8.60661 4.98202V10.999C8.60661 11.3388 8.32862 11.6168 7.98885 11.6168C7.64909 11.6168 7.37109 11.3388 7.37109 10.999V4.98202C7.37109 4.64225 7.64909 4.36426 7.98885 4.36426Z" fill="white"/>
    <path d="M4.98104 7.37305H10.998C11.3378 7.37305 11.6158 7.65104 11.6158 7.99081C11.6158 8.33058 11.3378 8.60857 10.998 8.60857H4.98104C4.64127 8.60857 4.36328 8.33058 4.36328 7.99081C4.36328 7.65104 4.64127 7.37305 4.98104 7.37305Z" fill="white"/>
  </g>
  <defs>
    <clipPath id="clip0_2437_27091">
      <rect width="16" height="16" fill="white"/>
    </clipPath>
  </defs>
</svg>
