<svg width="28" height="28" viewBox="0 0 28 28" fill="none" xmlns="http://www.w3.org/2000/svg">
<g clip-path="url(#clip0_2409_15516)">
<path d="M13.999 24.6864C19.901 24.6864 24.6855 19.9019 24.6855 14C24.6855 8.09798 19.901 3.31348 13.999 3.31348C8.097 3.31348 3.3125 8.09798 3.3125 14C3.3125 19.9019 8.097 24.6864 13.999 24.6864Z" fill="#70D2B3"/>
<path d="M5.86877 5.87033C10.3499 1.38925 17.6472 1.38925 22.1336 5.87033C26.6201 10.3514 26.6147 17.6487 22.1336 22.1352C17.6526 26.6163 10.3553 26.6163 5.86877 22.1352C1.38228 17.6541 1.38228 10.3568 5.86877 5.87033ZM20.9823 20.9838C24.8309 17.1352 24.8363 10.8649 20.9823 7.01628C17.1282 3.16763 10.8634 3.16763 7.01472 7.01628C3.16607 10.8649 3.16607 17.1352 7.01472 20.9838C10.8634 24.8325 17.1336 24.8325 20.9823 20.9838Z" fill="#70D2B3"/>
<path d="M13.9834 7.63794C14.578 7.63794 15.0645 8.12443 15.0645 8.71902V19.2487C15.0645 19.8433 14.578 20.3298 13.9834 20.3298C13.3888 20.3298 12.9023 19.8433 12.9023 19.2487V8.71902C12.9023 8.12443 13.3888 7.63794 13.9834 7.63794Z" fill="white"/>
<path d="M8.7178 12.9026H19.2475C19.8421 12.9026 20.3286 13.3891 20.3286 13.9837C20.3286 14.5783 19.8421 15.0647 19.2475 15.0647H8.7178C8.1232 15.0647 7.63672 14.5783 7.63672 13.9837C7.63672 13.3891 8.1232 12.9026 8.7178 12.9026Z" fill="white"/>
</g>
<defs>
<clipPath id="clip0_2409_15516">
<rect width="28" height="28" fill="white"/>
</clipPath>
</defs>
</svg>
