<svg xmlns="http://www.w3.org/2000/svg" width="80" height="80" viewBox="0 0 80 80" fill="none">
  <path d="M77.6297 39.7725C77.6297 19.1091 60.7801 2.35547 39.9985 2.35547C19.2168 2.35547 2.36719 19.1091 2.36719 39.7725C2.36719 52.3339 8.60485 63.4193 18.1587 70.2024V68.1141C18.1587 59.3839 25.2807 52.3182 34.045 52.3182H45.9519C54.732 52.3182 61.8382 59.3996 61.8382 68.1141V70.2024C71.3921 63.4193 77.6297 52.3339 77.6297 39.7725Z" fill="white" stroke="white" stroke-width="3" stroke-linejoin="round"/>
  <path d="M46.4419 51.1563H33.5718C24.0811 51.1563 16.3906 58.803 16.3906 68.2397V70.5007C23.0547 75.2426 31.1873 78.0532 40.0148 78.0532C48.8423 78.0532 56.9749 75.2426 63.6389 70.5007V68.2397C63.6389 58.803 55.9485 51.1563 46.4577 51.1563H46.4419Z" fill="#F5F5F7" stroke="#F5F5F7" stroke-linejoin="round"/>
  <path d="M40.0009 44.7964C47.4142 44.7964 53.4238 38.821 53.4238 31.4499C53.4238 24.0789 47.4142 18.1035 40.0009 18.1035C32.5877 18.1035 26.5781 24.0789 26.5781 31.4499C26.5781 38.821 32.5877 44.7964 40.0009 44.7964Z" fill="#F5F5F7" stroke="#F5F5F7" stroke-width="0.75" stroke-linejoin="round"/>
</svg>
