<svg xmlns="http://www.w3.org/2000/svg" width="60" height="60" viewBox="0 0 60 60" fill="none">
  <g clip-path="url(#clip0_2534_10728)">
    <path d="M47.6748 36.9616H47.6516C49.3891 33.9616 50.4084 30.4867 50.4084 26.7569C50.4084 15.4867 41.2694 6.34766 29.9991 6.34766C18.7288 6.34766 9.58984 15.4982 9.58984 26.7685C9.58984 38.0388 18.2308 46.645 29.0725 47.1314L27.7173 53.7453C27.7173 53.7453 38.3852 49.1816 45.6246 39.9036C46.308 39.0928 46.9219 38.2125 47.4779 37.2975C47.5474 37.1816 47.6285 37.0774 47.698 36.9616H47.6748Z" fill="#70D2B3"/>
    <path d="M27.7049 55.482C27.311 55.482 26.9172 55.343 26.6045 55.0881C26.1064 54.6827 25.8747 54.0225 26.0022 53.397L26.9751 48.6943C16.0987 47.2117 7.85157 37.9453 7.85157 26.7793C7.83999 14.5476 17.7782 4.60938 29.9983 4.60938C42.2184 4.60938 52.145 14.5476 52.145 26.7561C52.145 30.5553 51.1489 34.3082 49.2724 37.6325C49.2377 37.7136 49.1913 37.7947 49.145 37.8758L48.9134 38.2349C48.2995 39.2426 47.6508 40.1692 46.9327 41.0148C39.5427 50.4897 28.8284 55.1345 28.3767 55.3314C28.1566 55.424 27.9249 55.4704 27.6933 55.4704L27.7049 55.482ZM29.9983 8.08428C19.701 8.08428 11.3265 16.4588 11.3265 26.7561C11.3265 37.0534 19.1566 44.9298 29.1411 45.3816C29.6508 45.4047 30.1257 45.648 30.4384 46.0534C30.7512 46.4588 30.867 46.9684 30.7744 47.4665L30.1373 50.5476C33.728 48.5322 39.728 44.6171 44.2454 38.8256C44.8825 38.0727 45.4384 37.2851 45.9829 36.3932L46.1103 36.1962C46.1103 36.1962 46.145 36.1267 46.1682 36.092C47.813 33.2426 48.6817 30.0225 48.6817 26.7561C48.6817 16.4588 40.3072 8.08428 30.0099 8.08428H29.9983Z" fill="#70D2B3"/>
    <path d="M30.6494 15.7188C31.634 15.7188 32.5259 15.8462 33.3135 16.0894C34.1012 16.3327 34.773 16.6801 35.3174 17.1319C35.8618 17.5836 36.2904 18.1164 36.5799 18.7419C36.8695 19.3674 37.0201 20.0508 37.0201 20.8037V21.1048C37.0201 21.545 36.9738 21.962 36.8695 22.3558C36.7653 22.7496 36.5915 23.1435 36.3483 23.5489C36.105 23.9543 35.7575 24.3828 35.329 24.8346C34.9004 25.2979 34.3676 25.8191 33.7189 26.3983C33.3135 26.7689 33.0008 27.0817 32.7575 27.3481C32.5143 27.6145 32.3406 27.8577 32.2131 28.0894C32.0857 28.3211 32.0046 28.5411 31.9699 28.7728C31.9351 29.0045 31.912 29.2593 31.912 29.5604C31.912 29.9774 31.7498 30.3133 31.4371 30.545C31.1243 30.7767 30.7421 30.9041 30.3251 30.9041C29.8618 30.9041 29.4796 30.7882 29.1436 30.5566C28.8193 30.3249 28.6456 29.9659 28.6456 29.4678C28.6456 28.9697 28.6687 28.5643 28.7267 28.1821C28.7846 27.7998 28.8888 27.4292 29.0394 27.0701C29.19 26.711 29.4216 26.352 29.7228 26.0045C30.024 25.657 30.4178 25.2516 30.9158 24.8114C31.4834 24.3133 31.9351 23.8964 32.2711 23.5604C32.607 23.2245 32.8734 22.9118 33.0587 22.6454C33.244 22.3674 33.3599 22.1242 33.4178 21.8925C33.4757 21.6608 33.4989 21.4176 33.4989 21.1396V21.0006C33.4989 20.711 33.4409 20.433 33.3367 20.1782C33.2324 19.9234 33.0587 19.6917 32.827 19.4948C32.5954 19.2979 32.2942 19.1357 31.9236 19.0199C31.5529 18.9041 31.0896 18.8462 30.5336 18.8462C29.8039 18.8462 29.1552 18.9504 28.6108 19.1705C28.0664 19.3906 27.5452 19.6686 27.0471 20.0276C26.6765 20.2825 26.3174 20.3751 25.9583 20.294C25.5992 20.213 25.2981 19.9929 25.0433 19.6454C24.7884 19.3211 24.661 18.9504 24.6726 18.5334C24.6726 18.1164 24.8695 17.7805 25.2402 17.5025C25.912 16.9697 26.6996 16.5411 27.5915 16.2284C28.4834 15.9041 29.5027 15.7535 30.6494 15.7535V15.7188ZM30.2904 32.7342C30.8811 32.7342 31.3676 32.9311 31.773 33.3365C32.1784 33.7419 32.3753 34.2284 32.3753 34.8191C32.3753 35.4099 32.1784 35.8964 31.773 36.3018C31.3676 36.7072 30.8811 36.9041 30.2904 36.9041C29.6996 36.9041 29.2131 36.7072 28.8077 36.3018C28.4023 35.8964 28.2054 35.4099 28.2054 34.8191C28.2054 34.2284 28.4023 33.7419 28.8077 33.3365C29.2131 32.9311 29.6996 32.7342 30.2904 32.7342Z" fill="white"/>
  </g>
  <defs>
    <clipPath id="clip0_2534_10728">
      <rect width="60" height="60" fill="white"/>
    </clipPath>
  </defs>
</svg>
