<svg xmlns="http://www.w3.org/2000/svg" width="20" height="20" viewBox="0 0 20 20" fill="none">
  <g clip-path="url(#clip0_3103_11572)">
    <path d="M16.863 9.49762L4.37654 2.28912C4.19893 2.18488 3.97499 2.18488 3.79739 2.28912C3.61978 2.39337 3.50781 2.58256 3.50781 2.79105V8.45901C3.50781 8.74086 3.71245 8.9841 3.9943 9.03044L9.86689 9.99569L3.9943 10.9416C3.71245 10.988 3.50781 11.2273 3.50781 11.5131V17.2119C3.50781 17.4204 3.61978 17.6096 3.79739 17.7138C3.88619 17.764 3.98658 17.7911 4.08696 17.7911C4.18735 17.7911 4.28774 17.764 4.37654 17.7138L16.863 10.5053C17.0406 10.4011 17.1526 10.2119 17.1526 10.0034C17.1526 9.79491 17.0406 9.60573 16.863 9.50148V9.49762Z" fill="#70D2B3"/>
  </g>
  <defs>
    <clipPath id="clip0_3103_11572">
      <rect width="20" height="20" fill="white"/>
    </clipPath>
  </defs>
</svg>