<svg width="20" height="20" viewBox="0 0 20 20" fill="none" xmlns="http://www.w3.org/2000/svg">
<g clip-path="url(#clip0_2409_15711)">
<path d="M9.24202 15.4093C5.74395 15.4093 2.89453 12.5637 2.89453 9.06177C2.89453 5.55984 5.74009 2.71814 9.24202 2.71814C12.744 2.71814 15.5895 5.5637 15.5895 9.06563C15.5895 12.5676 12.744 15.4131 9.24202 15.4131V15.4093ZM9.24202 4.26254C6.59337 4.26254 4.43893 6.41698 4.43893 9.06563C4.43893 11.7143 6.59337 13.8687 9.24202 13.8687C11.8907 13.8687 14.0451 11.7143 14.0451 9.06563C14.0451 6.41698 11.8907 4.26254 9.24202 4.26254Z" fill="#70D2B3"/>
<path d="M16.2692 16.8649C16.0723 16.8649 15.8754 16.7877 15.7248 16.6371L12.636 13.5483C12.3349 13.2471 12.3349 12.7568 12.636 12.4556C12.9372 12.1544 13.4275 12.1544 13.7287 12.4556L16.8175 15.5444C17.1187 15.8456 17.1187 16.3359 16.8175 16.6371C16.6669 16.7877 16.47 16.8649 16.2731 16.8649H16.2692Z" fill="#70D2B3"/>
</g>
<defs>
<clipPath id="clip0_2409_15711">
<rect width="20" height="20" fill="white"/>
</clipPath>
</defs>
</svg>
