<svg xmlns="http://www.w3.org/2000/svg" width="20" height="20" viewBox="0 0 20 20" fill="none">
  <g clip-path="url(#clip0_2437_23646)">
    <path d="M9.24202 15.4089C5.74395 15.4089 2.89453 12.5633 2.89453 9.0614C2.89453 5.55947 5.74009 2.71777 9.24202 2.71777C12.744 2.71777 15.5895 5.56333 15.5895 9.06526C15.5895 12.5672 12.744 15.4128 9.24202 15.4128V15.4089ZM9.24202 4.26217C6.59337 4.26217 4.43893 6.41661 4.43893 9.06526C4.43893 11.7139 6.59337 13.8684 9.24202 13.8684C11.8907 13.8684 14.0451 11.7139 14.0451 9.06526C14.0451 6.41661 11.8907 4.26217 9.24202 4.26217Z" fill="#70D2B3"/>
    <path d="M16.2692 16.8646C16.0723 16.8646 15.8754 16.7874 15.7248 16.6368L12.636 13.548C12.3349 13.2469 12.3349 12.7565 12.636 12.4554C12.9372 12.1542 13.4275 12.1542 13.7287 12.4554L16.8175 15.5442C17.1187 15.8453 17.1187 16.3357 16.8175 16.6368C16.6669 16.7874 16.47 16.8646 16.2731 16.8646H16.2692Z" fill="#70D2B3"/>
  </g>
  <defs>
    <clipPath id="clip0_2437_23646">
      <rect width="20" height="20" fill="white"/>
    </clipPath>
  </defs>
</svg>
