<svg width="20" height="20" viewBox="0 0 20 20" fill="none" xmlns="http://www.w3.org/2000/svg">
<g clip-path="url(#clip0_2409_15757)">
<path d="M16.863 9.49811L4.37654 2.28961C4.19893 2.18536 3.97499 2.18536 3.79739 2.28961C3.61978 2.39386 3.50781 2.58305 3.50781 2.79154V8.4595C3.50781 8.74135 3.71245 8.98459 3.9943 9.03092L9.86689 9.99617L3.9943 10.9421C3.71245 10.9885 3.50781 11.2278 3.50781 11.5135V17.2124C3.50781 17.4209 3.61978 17.6101 3.79739 17.7143C3.88619 17.7645 3.98658 17.7915 4.08696 17.7915C4.18735 17.7915 4.28774 17.7645 4.37654 17.7143L16.863 10.5058C17.0406 10.4016 17.1526 10.2124 17.1526 10.0039C17.1526 9.7954 17.0406 9.60621 16.863 9.50197V9.49811Z" fill="#70D2B3"/>
</g>
<defs>
<clipPath id="clip0_2409_15757">
<rect width="20" height="20" fill="white"/>
</clipPath>
</defs>
</svg>
