<svg xmlns="http://www.w3.org/2000/svg" width="16" height="16" viewBox="0 0 16 16" fill="none">
  <path d="M7.18381 3.15298C7.58232 2.59002 8.41768 2.59002 8.81619 3.15298L9.95566 4.76264C10.0825 4.94188 10.2649 5.07437 10.4746 5.13965L12.3576 5.72594C13.0161 5.93099 13.2743 6.72546 12.862 7.27844L11.6832 8.85955C11.552 9.03561 11.4823 9.24998 11.485 9.46956L11.5093 11.4416C11.5178 12.1313 10.842 12.6223 10.1887 12.4011L8.3207 11.7686C8.1127 11.6982 7.8873 11.6982 7.6793 11.7686L5.81131 12.4011C5.158 12.6223 4.48219 12.1313 4.49068 11.4416L4.51496 9.46956C4.51767 9.24998 4.44801 9.03561 4.31676 8.85955L3.138 7.27844C2.72574 6.72546 2.98388 5.93099 3.64243 5.72594L5.52543 5.13965C5.7351 5.07437 5.91745 4.94188 6.04434 4.76264L7.18381 3.15298Z" fill="#70D2B3"/>
</svg>
