<svg xmlns="http://www.w3.org/2000/svg" width="28" height="28" viewBox="0 0 28 28" fill="none">
  <g clip-path="url(#clip0_3114_11966)">
    <path d="M23.3663 10.5011H4.63112C4.18247 10.5011 3.82031 10.1389 3.82031 9.69027V5.60378C3.82031 5.15513 4.18247 4.79297 4.63112 4.79297H23.3663C23.8149 4.79297 24.1771 5.15513 24.1771 5.60378V9.69027C24.1771 10.1389 23.8149 10.5011 23.3663 10.5011ZM5.44193 8.87946H22.5554V6.41459H5.44193V8.87946Z" fill="#A3A4AF"/>
    <path d="M16.4983 6.41579H11.4983C11.0497 6.41579 10.6875 6.05363 10.6875 5.60498V5.49147C10.6875 3.72931 12.1199 2.29688 13.8821 2.29688H14.1145C15.8767 2.29688 17.3091 3.72931 17.3091 5.49147V5.60498C17.3091 6.05363 16.947 6.41579 16.4983 6.41579ZM12.4713 4.79417H15.5253C15.2713 4.27525 14.7307 3.9185 14.1145 3.9185H13.8821C13.2659 3.9185 12.7253 4.27525 12.4713 4.79417Z" fill="#A3A4AF"/>
    <path d="M20.2881 25.702H7.71514C7.29893 25.702 6.95298 25.3885 6.90974 24.9723L5.34757 9.7723C5.32595 9.54527 5.39622 9.31824 5.55298 9.14527C5.70433 8.9723 5.92595 8.875 6.15298 8.875H21.8503C22.0773 8.875 22.2989 8.9723 22.4503 9.14527C22.607 9.31824 22.6773 9.54527 22.6557 9.7723L21.0935 24.9723C21.0503 25.3831 20.7043 25.702 20.2881 25.702ZM8.44487 24.0804H19.553L20.9476 10.502H7.05028L8.44487 24.0804Z" fill="#A3A4AF"/>
    <path d="M11.7132 21.0482C11.2645 21.0482 10.9023 20.6861 10.9023 20.2374V13.6428C10.9023 13.1942 11.2645 12.832 11.7132 12.832C12.1618 12.832 12.524 13.1942 12.524 13.6428V20.2374C12.524 20.6861 12.1618 21.0482 11.7132 21.0482Z" fill="#A3A4AF"/>
    <path d="M16.2874 21.0482C15.8387 21.0482 15.4766 20.6861 15.4766 20.2374V13.6428C15.4766 13.1942 15.8387 12.832 16.2874 12.832C16.736 12.832 17.0982 13.1942 17.0982 13.6428V20.2374C17.0982 20.6861 16.736 21.0482 16.2874 21.0482Z" fill="#A3A4AF"/>
  </g>
  <defs>
    <clipPath id="clip0_3114_11966">
      <rect width="28" height="28" fill="white"/>
    </clipPath>
  </defs>
</svg>
