<svg width="28" height="28" viewBox="0 0 28 28" fill="none" xmlns="http://www.w3.org/2000/svg">
<g clip-path="url(#clip0_2409_15740)">
<path d="M23.3663 10.5027H4.63112C4.18247 10.5027 3.82031 10.1405 3.82031 9.69185V5.60537C3.82031 5.15672 4.18247 4.79456 4.63112 4.79456H23.3663C23.8149 4.79456 24.1771 5.15672 24.1771 5.60537V9.69185C24.1771 10.1405 23.8149 10.5027 23.3663 10.5027ZM5.44193 8.88104H22.5554V6.41618H5.44193V8.88104Z" fill="#A3A4AF"/>
<path d="M16.4983 6.41616H11.4983C11.0497 6.41616 10.6875 6.054 10.6875 5.60535V5.49184C10.6875 3.72967 12.1199 2.29724 13.8821 2.29724H14.1145C15.8767 2.29724 17.3091 3.72967 17.3091 5.49184V5.60535C17.3091 6.054 16.947 6.41616 16.4983 6.41616ZM12.4713 4.79454H15.5253C15.2713 4.27562 14.7307 3.91886 14.1145 3.91886H13.8821C13.2659 3.91886 12.7253 4.27562 12.4713 4.79454Z" fill="#A3A4AF"/>
<path d="M20.2881 25.7028H7.71514C7.29893 25.7028 6.95298 25.3892 6.90974 24.973L5.34757 9.77303C5.32595 9.546 5.39622 9.31898 5.55298 9.146C5.70433 8.97303 5.92595 8.87573 6.15298 8.87573H21.8503C22.0773 8.87573 22.2989 8.97303 22.4503 9.146C22.607 9.31898 22.6773 9.546 22.6557 9.77303L21.0935 24.973C21.0503 25.3838 20.7043 25.7028 20.2881 25.7028ZM8.44487 24.0811H19.553L20.9476 10.5028H7.05028L8.44487 24.0811Z" fill="#A3A4AF"/>
<path d="M11.7132 21.0486C11.2645 21.0486 10.9023 20.6865 10.9023 20.2378V13.6432C10.9023 13.1946 11.2645 12.8324 11.7132 12.8324C12.1618 12.8324 12.524 13.1946 12.524 13.6432V20.2378C12.524 20.6865 12.1618 21.0486 11.7132 21.0486Z" fill="#A3A4AF"/>
<path d="M16.2874 21.0486C15.8387 21.0486 15.4766 20.6865 15.4766 20.2378V13.6432C15.4766 13.1946 15.8387 12.8324 16.2874 12.8324C16.736 12.8324 17.0982 13.1946 17.0982 13.6432V20.2378C17.0982 20.6865 16.736 21.0486 16.2874 21.0486Z" fill="#A3A4AF"/>
</g>
<defs>
<clipPath id="clip0_2409_15740">
<rect width="28" height="28" fill="white"/>
</clipPath>
</defs>
</svg>
